<?xml version="1.0" standalone="no"?>
<!DOCTYPE svg PUBLIC "-//W3C//DTD SVG 20010904//EN"
 "http://www.w3.org/TR/2001/REC-SVG-20010904/DTD/svg10.dtd">
<svg version="1.0" xmlns="http://www.w3.org/2000/svg"
 width="1240.000000pt" height="1240.000000pt" viewBox="0 0 1240.000000 1240.000000"
 preserveAspectRatio="xMidYMid meet">

<g transform="translate(0.000000,1240.000000) scale(0.100000,-0.100000)"
fill="#000000" stroke="none">
<path d="M5305 12385 c-17 -8 -64 -14 -110 -15 -44 0 -96 -5 -115 -11 -33 -11
-77 -17 -270 -37 -47 -5 -98 -14 -113 -21 -16 -6 -48 -11 -72 -11 -24 0 -47
-4 -50 -10 -3 -5 -28 -10 -55 -10 -27 0 -51 -4 -54 -9 -3 -4 -33 -11 -65 -15
-33 -4 -63 -11 -66 -16 -4 -6 -28 -10 -55 -10 -27 0 -52 -4 -55 -10 -3 -5 -23
-10 -44 -10 -20 0 -42 -5 -48 -11 -11 -11 -61 -25 -133 -36 -19 -3 -44 -12
-55 -19 -11 -8 -32 -14 -47 -14 -15 0 -30 -4 -33 -10 -3 -5 -21 -10 -40 -10
-19 0 -37 -4 -40 -10 -3 -5 -19 -10 -34 -10 -15 0 -36 -7 -47 -15 -10 -8 -29
-15 -41 -15 -12 0 -25 -4 -28 -10 -3 -5 -16 -10 -28 -10 -12 0 -31 -7 -41 -15
-11 -8 -30 -15 -42 -15 -13 0 -26 -4 -29 -10 -3 -5 -15 -10 -25 -10 -10 0 -33
-8 -52 -17 -60 -30 -68 -33 -83 -33 -14 0 -35 -9 -75 -32 -8 -4 -22 -11 -30
-14 -41 -16 -66 -27 -80 -35 -8 -5 -22 -12 -30 -15 -40 -15 -59 -24 -115 -49
-33 -15 -76 -36 -95 -46 -19 -10 -51 -26 -70 -36 -19 -9 -40 -22 -47 -29 -6
-6 -35 -23 -65 -38 -29 -15 -75 -41 -103 -57 -27 -16 -58 -32 -67 -35 -10 -4
-18 -10 -18 -15 0 -5 -4 -9 -10 -9 -5 0 -41 -22 -80 -50 -39 -27 -74 -50 -79
-50 -5 0 -11 -4 -13 -8 -1 -5 -37 -33 -78 -63 -41 -29 -80 -58 -86 -64 -6 -5
-30 -26 -54 -45 -92 -74 -129 -109 -255 -235 -131 -132 -160 -163 -226 -245
-20 -25 -46 -56 -58 -69 -11 -13 -21 -27 -21 -30 0 -3 -14 -22 -30 -41 -17
-19 -33 -43 -36 -52 -3 -10 -10 -18 -15 -18 -5 0 -9 -7 -9 -15 0 -8 -5 -15
-10 -15 -6 0 -15 -10 -20 -22 -5 -13 -21 -41 -35 -63 -14 -22 -28 -47 -32 -55
-4 -8 -22 -38 -40 -67 -18 -29 -33 -59 -33 -68 0 -8 -4 -15 -9 -15 -5 0 -11
-8 -15 -17 -3 -10 -10 -25 -15 -33 -5 -8 -14 -28 -21 -45 -7 -16 -16 -37 -21
-45 -5 -8 -12 -22 -15 -30 -3 -8 -10 -23 -15 -32 -5 -10 -9 -24 -9 -32 0 -7
-7 -19 -15 -26 -8 -7 -15 -23 -15 -36 0 -14 -4 -32 -9 -42 -5 -9 -17 -37 -26
-62 -10 -25 -21 -54 -25 -65 -5 -11 -11 -33 -15 -50 -17 -84 -23 -106 -32
-117 -10 -12 -14 -33 -29 -140 -3 -24 -12 -57 -20 -75 -8 -17 -14 -55 -14 -85
0 -32 -6 -62 -15 -74 -22 -29 -22 -971 0 -1000 8 -10 15 -40 15 -65 0 -26 7
-63 15 -82 8 -20 15 -59 15 -86 0 -27 5 -53 10 -56 6 -3 10 -31 10 -61 0 -31
4 -64 10 -74 5 -10 12 -42 16 -72 3 -29 10 -57 15 -62 5 -6 9 -29 9 -53 0 -24
5 -43 10 -43 6 0 10 -15 10 -32 0 -18 7 -46 15 -62 8 -15 15 -43 15 -62 0 -18
5 -36 10 -39 6 -3 10 -23 10 -43 0 -20 7 -46 15 -56 8 -11 15 -37 15 -57 0
-21 4 -41 10 -44 5 -3 10 -23 10 -44 0 -20 4 -41 9 -46 11 -14 41 -109 41
-134 0 -11 4 -22 9 -25 4 -3 11 -24 15 -46 3 -22 11 -40 16 -40 6 0 10 -16 10
-35 0 -19 5 -35 10 -35 6 0 10 -16 10 -35 0 -19 4 -35 9 -35 9 0 25 -53 38
-125 3 -16 9 -34 13 -40 5 -5 11 -27 15 -47 4 -21 11 -38 16 -38 5 0 9 -16 9
-35 0 -19 4 -35 9 -35 5 0 12 -16 15 -35 4 -19 11 -35 15 -35 5 0 11 -12 14
-27 13 -65 21 -88 34 -101 7 -7 13 -24 13 -37 0 -13 5 -27 10 -30 6 -3 10 -17
10 -30 0 -13 5 -27 10 -30 6 -3 10 -16 10 -28 0 -12 7 -31 15 -41 8 -11 15
-30 15 -43 0 -13 5 -23 10 -23 6 0 10 -13 10 -29 0 -16 7 -34 15 -41 8 -7 15
-23 15 -36 0 -12 5 -26 10 -29 6 -3 10 -15 10 -25 0 -10 6 -31 14 -47 8 -15
19 -39 24 -53 6 -14 17 -43 27 -65 9 -22 21 -50 26 -62 25 -62 33 -80 44 -108
7 -16 17 -41 23 -55 5 -14 17 -43 27 -65 9 -22 21 -50 26 -62 25 -62 33 -80
44 -108 7 -16 18 -41 23 -55 6 -14 22 -51 36 -82 14 -31 26 -63 26 -71 0 -8 7
-17 15 -21 8 -3 15 -14 15 -25 0 -11 5 -23 10 -26 6 -3 10 -15 10 -26 0 -10 5
-19 10 -19 6 0 10 -5 10 -12 0 -10 59 -140 91 -200 5 -10 9 -24 9 -32 0 -7 7
-19 15 -26 8 -7 13 -16 10 -20 -3 -5 2 -15 10 -23 8 -9 15 -25 15 -36 0 -12 5
-21 10 -21 6 0 10 -6 10 -14 0 -7 11 -34 25 -60 14 -26 25 -53 25 -60 0 -8 7
-19 15 -26 8 -7 15 -21 15 -31 0 -11 5 -19 10 -19 6 0 10 -9 10 -19 0 -11 4
-22 9 -25 5 -4 39 -66 76 -139 37 -72 71 -136 76 -141 5 -6 9 -18 9 -27 0 -10
3 -19 8 -21 10 -4 62 -110 62 -125 0 -7 4 -13 10 -13 5 0 12 -11 16 -25 3 -14
10 -25 15 -25 5 0 9 -11 9 -25 0 -14 4 -25 9 -25 5 0 12 -11 15 -25 4 -14 11
-25 16 -25 6 0 10 -8 11 -17 0 -10 9 -31 19 -48 11 -16 28 -47 40 -67 11 -20
24 -39 30 -43 5 -3 10 -15 10 -26 0 -10 3 -19 8 -19 7 0 10 -4 46 -77 11 -21
23 -40 27 -43 3 -3 9 -15 13 -27 4 -13 12 -23 17 -23 5 0 9 -9 9 -20 0 -11 3
-20 8 -20 4 0 12 -10 18 -23 43 -87 78 -147 85 -147 5 0 9 -7 9 -15 0 -8 16
-39 35 -69 19 -30 35 -58 35 -61 0 -4 11 -21 25 -39 14 -18 25 -36 25 -40 0
-4 11 -22 25 -40 14 -18 25 -38 25 -44 0 -7 5 -12 10 -12 6 0 10 -5 10 -11 0
-6 11 -25 25 -43 14 -18 25 -36 25 -40 0 -4 11 -22 25 -40 14 -18 25 -38 25
-44 0 -6 3 -12 8 -14 8 -3 62 -84 62 -93 0 -4 10 -21 23 -38 12 -18 27 -39 32
-48 28 -45 97 -147 117 -173 13 -16 25 -34 27 -40 2 -6 10 -16 17 -23 7 -7 81
-109 164 -225 151 -213 196 -276 228 -313 9 -11 33 -40 52 -65 19 -25 37 -47
40 -50 3 -3 35 -41 70 -85 36 -44 68 -81 72 -83 4 -2 32 -34 63 -72 30 -38
144 -158 253 -267 223 -224 281 -278 407 -375 52 -40 68 -53 87 -70 10 -10 23
-18 28 -18 6 0 10 -4 10 -10 0 -5 5 -10 10 -10 6 0 41 -22 79 -50 38 -27 72
-50 75 -50 7 0 20 -10 51 -37 7 -7 20 -13 28 -13 9 0 17 -3 19 -7 2 -5 32 -23
68 -41 36 -18 81 -41 100 -51 19 -10 49 -24 65 -31 17 -6 43 -18 58 -26 16 -8
35 -14 43 -14 8 0 22 -4 32 -9 51 -26 96 -41 122 -41 16 0 35 -7 44 -15 22
-22 610 -22 632 0 9 8 28 15 44 15 26 0 71 15 122 41 10 5 24 9 32 9 8 0 27 6
43 14 15 8 42 20 58 26 17 7 46 21 65 31 19 10 64 33 100 51 36 18 67 36 68
41 2 4 10 7 19 7 8 0 21 6 28 13 31 27 44 37 51 37 3 0 37 22 75 50 38 27 73
50 79 50 5 0 10 5 10 10 0 6 5 10 10 10 6 0 18 8 28 18 19 17 35 30 87 70 126
97 184 151 407 375 109 109 223 229 253 267 31 38 59 70 63 72 4 2 36 39 72
83 35 44 67 82 70 85 3 3 21 25 40 50 19 25 43 54 52 65 29 35 74 95 193 262
64 89 121 168 128 175 7 7 18 25 25 39 8 15 25 38 38 52 13 14 24 30 24 34 0
5 10 19 23 33 13 14 32 40 42 57 11 18 23 33 27 33 4 0 8 5 8 12 0 6 11 26 25
44 14 18 25 36 25 40 0 4 11 22 25 40 14 18 25 35 25 39 0 9 54 90 62 93 5 2
8 8 8 14 0 6 11 26 25 44 14 18 25 36 25 40 0 4 11 22 25 40 14 18 25 37 25
43 0 6 5 11 10 11 6 0 10 5 10 12 0 6 11 26 25 44 14 18 25 36 25 40 0 4 11
22 25 40 14 18 25 35 25 39 0 3 16 31 35 61 19 30 35 61 35 69 0 8 4 15 9 15
7 0 42 60 85 147 6 13 14 23 19 23 4 0 7 9 7 20 0 11 4 20 9 20 5 0 13 10 17
22 4 13 10 25 13 28 4 3 16 22 27 43 36 73 39 77 46 77 5 0 8 9 8 19 0 11 5
23 10 26 6 4 19 23 30 43 12 20 29 51 40 67 10 17 19 38 19 48 1 9 5 17 11 17
5 0 12 11 16 25 3 14 10 25 15 25 5 0 9 11 9 25 0 14 4 25 9 25 5 0 12 11 15
25 4 14 11 25 16 25 6 0 10 6 10 13 0 15 52 121 63 125 4 2 7 11 7 21 0 9 4
21 9 27 5 5 39 69 76 141 37 73 71 135 76 139 5 3 9 14 9 25 0 10 5 19 10 19
6 0 10 8 10 19 0 10 7 24 15 31 8 7 15 18 15 26 0 7 11 34 25 60 14 26 25 53
25 60 0 8 5 14 10 14 6 0 10 9 10 21 0 11 7 27 15 36 8 8 13 18 10 23 -3 4 2
13 10 20 8 7 15 19 15 26 0 8 4 22 9 32 32 60 91 190 91 200 0 7 5 12 10 12 6
0 10 9 10 19 0 11 4 23 10 26 6 3 10 15 10 26 0 11 7 22 15 25 8 4 15 13 15
21 0 8 12 40 26 71 14 31 30 68 36 82 5 14 16 39 23 55 7 17 17 41 23 55 5 14
17 43 27 65 26 62 34 83 46 113 6 15 17 41 24 57 7 17 17 41 23 55 5 14 17 43
27 65 27 66 34 84 46 113 6 15 17 40 25 55 8 16 14 37 14 47 0 10 5 22 10 25
6 3 10 17 10 29 0 13 7 29 15 36 8 7 15 25 15 41 0 16 5 29 10 29 6 0 10 10
10 23 0 13 7 32 15 43 8 10 15 29 15 41 0 12 4 25 10 28 5 3 10 17 10 30 0 13
5 27 10 30 6 3 10 17 10 30 0 13 6 30 13 37 13 13 21 36 34 101 3 15 9 27 14
27 4 0 11 16 15 35 3 19 10 35 15 35 5 0 9 16 9 35 0 19 4 35 9 35 5 0 12 17
16 38 4 20 10 42 15 47 4 6 10 24 13 40 13 72 29 125 38 125 5 0 9 16 9 35 0
19 5 35 10 35 6 0 10 16 10 35 0 19 4 35 10 35 5 0 13 18 16 40 4 22 11 43 15
46 5 3 9 14 9 25 0 25 30 120 41 134 5 5 9 26 9 46 0 21 5 41 10 44 6 3 10 23
10 44 0 20 7 46 15 57 8 10 15 36 15 56 0 20 5 40 10 43 6 3 10 21 10 39 0 19
7 47 15 62 8 16 15 44 15 62 0 17 5 32 10 32 6 0 10 19 10 43 0 24 4 47 9 53
5 5 12 33 15 62 4 30 11 62 16 72 6 10 10 43 10 74 0 30 5 58 10 61 6 3 10 29
10 56 0 27 7 66 15 86 8 19 15 56 15 82 0 25 7 55 15 65 22 29 22 971 0 1000
-9 12 -15 42 -15 74 0 30 -6 68 -14 85 -8 18 -17 50 -20 72 -16 114 -19 131
-29 143 -9 11 -15 33 -32 117 -4 17 -10 39 -15 50 -4 11 -15 40 -25 65 -9 25
-21 53 -26 62 -5 10 -9 28 -9 42 0 13 -7 29 -15 36 -8 7 -15 19 -15 26 0 13
-9 34 -32 74 -4 8 -11 22 -14 30 -16 42 -27 66 -35 80 -5 8 -12 23 -15 33 -4
9 -10 17 -15 17 -5 0 -9 7 -9 15 0 9 -15 39 -33 68 -18 29 -36 59 -40 67 -4 8
-18 33 -32 55 -14 22 -30 50 -35 63 -5 12 -14 22 -20 22 -5 0 -10 7 -10 15 0
8 -4 15 -9 15 -5 0 -12 8 -15 18 -3 9 -19 33 -36 52 -16 19 -30 38 -30 41 0 3
-10 17 -21 30 -12 13 -38 44 -58 69 -66 82 -95 113 -226 245 -126 126 -163
161 -255 235 -24 19 -48 40 -54 45 -6 6 -45 35 -86 64 -41 30 -76 58 -78 63
-2 4 -8 8 -13 8 -5 0 -40 23 -79 50 -39 28 -75 50 -80 50 -6 0 -10 4 -10 9 0
5 -8 11 -17 15 -10 3 -40 19 -68 35 -27 16 -74 42 -103 57 -30 15 -59 32 -65
38 -13 12 -73 46 -127 71 -57 28 -143 66 -170 77 -14 6 -32 14 -40 19 -8 5
-22 12 -30 15 -41 16 -66 27 -80 35 -8 5 -22 12 -30 15 -8 3 -23 10 -32 15
-10 5 -25 9 -33 9 -15 0 -23 3 -83 33 -19 9 -42 17 -52 17 -10 0 -22 5 -25 10
-3 6 -16 10 -29 10 -12 0 -31 7 -42 15 -10 8 -29 15 -41 15 -12 0 -25 5 -28
10 -3 6 -16 10 -28 10 -12 0 -31 7 -41 15 -11 8 -32 15 -47 15 -15 0 -31 5
-34 10 -3 6 -21 10 -40 10 -19 0 -37 5 -40 10 -3 6 -18 10 -33 10 -15 0 -36 6
-47 14 -11 7 -36 16 -55 19 -72 11 -122 25 -133 36 -6 6 -28 11 -48 11 -21 0
-41 5 -44 10 -3 6 -28 10 -55 10 -27 0 -51 4 -55 10 -3 5 -33 12 -66 16 -32 4
-62 11 -65 15 -3 5 -27 9 -54 9 -27 0 -52 5 -55 10 -3 6 -26 10 -50 10 -24 0
-56 5 -72 11 -15 7 -66 16 -113 21 -193 20 -237 26 -270 37 -19 6 -70 11 -113
11 -46 0 -92 6 -114 15 -51 21 -1741 21 -1788 0z m-930 -864 c-10 -18 16 -23
34 -7 19 17 41 21 41 7 0 -10 76 -31 105 -28 12 1 24 -7 30 -20 6 -15 18 -23
35 -23 28 0 50 -16 50 -37 0 -18 50 -88 62 -85 5 1 7 -2 4 -7 -4 -5 7 -34 24
-63 69 -123 81 -150 75 -170 -8 -24 -127 -198 -200 -292 -61 -78 -146 -238
-165 -310 l-13 -49 -23 29 c-13 15 -21 30 -19 32 2 3 -5 16 -15 30 -11 13 -20
29 -20 34 0 6 -10 23 -21 40 -12 16 -32 48 -44 71 -45 85 -164 289 -178 305
-8 9 -27 44 -42 76 -22 49 -25 63 -16 79 10 15 9 24 -4 43 -13 21 -14 28 -1
52 7 15 17 46 21 70 5 32 13 45 30 52 16 6 22 15 19 27 -6 25 3 34 66 66 97
50 135 72 138 80 2 4 10 7 18 7 9 0 13 -4 9 -9z m459 -568 c-3 -16 -14 -40
-25 -55 -18 -26 -18 -26 5 -32 16 -4 30 -20 41 -48 16 -38 18 -77 17 -358 l-2
-315 30 -60 c27 -54 29 -56 25 -25 -17 126 -17 198 1 307 17 110 17 119 1 236
-10 67 -17 140 -17 162 0 23 -8 52 -20 70 -27 41 -25 62 8 100 l29 32 34 -60
c19 -33 45 -79 59 -102 27 -46 125 -218 151 -265 9 -16 18 -27 21 -24 3 2 10
-8 16 -23 5 -15 13 -35 16 -43 15 -39 83 -144 95 -148 10 -3 12 0 8 12 -4 10
-1 16 8 16 8 0 15 -4 15 -10 0 -19 41 -10 98 22 31 18 59 35 62 40 3 4 21 14
40 23 19 9 56 29 81 43 26 15 67 38 90 51 24 13 46 26 49 30 15 18 163 81 192
81 36 0 106 31 124 54 9 12 15 12 42 -1 30 -15 34 -15 46 2 11 16 15 16 43 2
27 -14 31 -14 45 -1 14 14 21 14 73 -2 52 -17 59 -17 68 -3 8 13 16 13 69 -5
58 -19 61 -19 73 -2 12 16 16 16 59 2 26 -9 55 -16 66 -16 10 0 22 -4 25 -10
3 -5 20 -10 36 -10 21 0 32 -7 40 -24 7 -14 23 -27 38 -31 86 -20 99 -26 104
-45 5 -20 28 -26 85 -22 19 1 22 -4 22 -36 0 -20 -10 -81 -22 -134 -16 -72
-19 -101 -11 -109 8 -8 15 -4 27 14 27 40 56 133 56 177 0 34 3 41 18 38 9 -2
18 -13 20 -26 2 -15 10 -22 26 -22 27 0 46 -18 46 -43 0 -14 5 -17 16 -13 14
5 15 4 5 -8 -13 -16 4 -26 45 -26 20 0 24 -5 24 -29 0 -20 6 -32 19 -36 10 -3
21 -15 24 -25 3 -12 14 -20 26 -20 21 0 64 -34 54 -43 -2 -3 14 -34 36 -70 23
-35 41 -67 41 -72 0 -4 10 -21 23 -38 12 -18 27 -41 33 -52 41 -74 138 -242
177 -308 26 -43 47 -80 47 -82 0 -3 14 -27 31 -54 l30 -50 -43 -56 c-59 -78
-117 -163 -153 -224 -54 -93 -49 -91 -81 -32 -16 29 -41 74 -56 100 -15 25
-35 62 -45 81 -10 19 -35 61 -56 92 -20 32 -44 73 -52 90 -8 18 -40 74 -70
123 -30 50 -64 110 -77 135 -12 25 -28 51 -35 58 -7 7 -13 19 -13 26 0 7 -9
24 -21 37 -11 13 -27 39 -35 58 -12 29 -18 33 -43 29 -17 -2 -28 -1 -25 3 9
15 -32 70 -56 75 -45 10 -50 13 -44 29 4 10 0 15 -10 15 -9 0 -16 -4 -16 -10
0 -5 -6 -10 -14 -10 -14 0 -32 36 -27 54 3 14 -20 26 -51 26 -20 0 -26 4 -22
14 7 19 -48 43 -145 61 -40 8 -79 19 -87 26 -7 6 -17 8 -22 5 -5 -3 -18 1 -28
9 -23 18 -81 19 -86 3 -4 -10 -17 -9 -59 4 -54 17 -152 15 -174 -3 -6 -4 -17
-4 -25 1 -20 13 -36 12 -52 -2 -31 -30 -83 -48 -116 -42 -23 5 -38 2 -50 -9
-9 -8 -57 -36 -107 -62 -49 -26 -91 -51 -93 -56 -2 -5 -8 -9 -14 -9 -5 0 -22
-9 -37 -19 -14 -10 -62 -38 -106 -61 -44 -23 -87 -48 -95 -55 -13 -11 -168
-99 -298 -170 -20 -11 -43 -26 -51 -33 -7 -7 -31 -20 -52 -29 -22 -8 -39 -19
-39 -23 0 -4 -10 -10 -23 -14 -13 -3 -41 -18 -63 -32 -21 -15 -88 -54 -149
-87 -60 -33 -112 -64 -115 -67 -3 -4 -41 -27 -85 -51 -44 -23 -81 -47 -83 -51
-2 -4 -10 -8 -17 -8 -8 0 -15 -12 -17 -27 -3 -26 -13 -34 -90 -78 -21 -11 -28
-23 -28 -45 0 -22 -5 -30 -18 -30 -11 0 -23 -13 -31 -35 -7 -19 -18 -35 -24
-35 -21 0 -35 -36 -31 -79 3 -39 2 -42 -26 -47 -25 -5 -31 -12 -36 -43 -10
-61 -36 -165 -44 -176 -27 -38 -38 -233 -12 -227 7 1 12 -11 12 -29 0 -16 -4
-28 -9 -25 -16 10 -21 -23 -6 -38 18 -17 20 -36 4 -36 -15 0 -1 -41 24 -68 18
-19 19 -27 10 -51 -10 -27 -5 -40 57 -148 37 -65 101 -176 141 -248 40 -71 77
-134 81 -140 5 -5 39 -64 77 -130 71 -124 299 -519 436 -755 43 -74 104 -180
135 -235 87 -153 94 -165 103 -165 4 0 7 -6 7 -13 0 -7 18 -43 40 -81 39 -67
50 -106 30 -106 -5 0 -10 -10 -10 -22 -1 -25 -18 -52 -37 -55 -7 -2 -17 21
-24 58 -7 33 -18 63 -26 66 -7 3 -33 -2 -56 -11 -24 -9 -53 -16 -65 -16 -42 0
-63 -18 -56 -48 9 -33 29 -68 63 -104 20 -23 22 -28 8 -28 -9 0 -17 -4 -17 -9
0 -13 -48 -19 -59 -8 -6 6 -11 19 -11 30 0 15 -5 17 -28 13 -23 -6 -29 -2 -40
21 -13 30 -44 85 -52 93 -8 8 -27 41 -66 115 -20 39 -42 77 -49 85 -7 8 -21
31 -30 50 -10 19 -21 37 -24 40 -3 3 -14 21 -23 40 -18 36 -38 72 -98 173 -49
82 -85 146 -106 187 -10 19 -32 55 -49 80 -17 25 -39 61 -48 80 -25 49 -69
124 -77 130 -3 3 -14 21 -23 40 -17 34 -51 96 -93 170 -11 19 -32 54 -47 77
-15 24 -27 47 -27 52 0 5 -3 11 -7 13 -5 2 -16 19 -26 38 -29 56 -61 113 -79
140 -14 21 -15 33 -7 69 13 60 8 85 -11 47 -15 -30 -40 -47 -40 -27 0 10 -53
106 -130 235 -18 30 -21 42 -12 56 8 14 7 22 -3 36 -8 11 -15 27 -15 36 0 9
-5 18 -12 20 -8 3 -12 24 -10 62 2 54 1 57 -18 51 -11 -4 -20 -2 -20 4 0 6 5
11 12 11 6 0 4 7 -5 18 -21 23 -21 32 0 47 15 11 15 15 4 29 -9 10 -11 28 -7
48 4 22 1 37 -10 50 -15 16 -16 20 -2 36 23 26 31 72 17 104 -9 22 -9 32 0 41
6 6 11 23 11 38 0 15 6 30 13 33 9 3 8 8 -4 18 -21 18 -34 79 -15 72 10 -4 16
7 21 38 9 54 22 78 40 78 14 0 26 33 40 110 8 45 26 81 37 74 9 -6 9 -4 29 68
8 27 20 48 30 51 9 3 19 19 23 41 5 27 12 36 26 36 15 0 21 9 26 40 5 33 10
39 24 35 25 -8 103 71 97 97 -4 14 -2 18 10 14 8 -4 32 8 56 27 23 18 53 39
67 46 14 7 46 24 71 39 26 15 67 38 90 51 24 13 46 27 49 31 3 4 21 15 40 24
19 9 56 29 81 44 26 15 65 37 88 50 35 19 41 27 41 54 0 17 -6 39 -14 47 -8 9
-34 54 -59 101 -48 91 -140 247 -157 267 -6 7 -13 26 -16 41 -7 35 13 76 88
186 29 43 62 93 72 110 72 118 187 276 202 276 3 0 2 -12 -2 -27z m1516 -1021
c0 -5 17 -9 37 -10 65 -3 147 -23 175 -43 15 -10 33 -19 41 -19 8 0 22 -9 32
-20 10 -11 25 -20 34 -20 16 0 45 -35 46 -55 0 -5 12 -12 28 -15 29 -5 58 -46
131 -185 23 -42 47 -83 77 -126 17 -25 23 -48 20 -80 0 -8 -20 -26 -43 -39
-24 -13 -95 -53 -158 -90 -114 -67 -129 -75 -245 -140 -32 -18 -82 -47 -110
-65 -27 -18 -74 -44 -102 -59 -29 -14 -53 -31 -53 -36 0 -9 27 -62 66 -127 18
-31 44 -45 44 -23 0 6 7 10 15 10 10 0 12 6 8 18 -6 15 -5 15 10 4 13 -11 20
-10 44 5 100 68 125 83 132 83 5 0 14 7 21 15 6 8 15 14 18 13 10 -2 61 22
107 51 22 14 42 26 45 26 13 2 50 31 50 40 0 5 11 11 24 11 14 1 35 11 47 23
13 12 26 22 31 22 4 1 13 2 18 3 6 0 14 6 18 12 4 6 33 23 65 38 56 26 60 27
78 10 11 -10 25 -28 32 -40 15 -27 100 -177 124 -219 10 -16 37 -63 60 -102
24 -40 43 -76 43 -79 0 -4 11 -21 24 -38 50 -66 44 -89 -34 -129 -19 -9 -56
-30 -83 -45 -26 -15 -66 -38 -90 -51 -23 -13 -44 -26 -47 -30 -3 -3 -21 -14
-40 -24 -19 -9 -57 -30 -85 -46 -27 -16 -64 -36 -81 -44 -17 -8 -35 -20 -38
-26 -4 -6 -28 -20 -54 -31 -25 -11 -49 -24 -52 -28 -3 -4 -23 -16 -45 -27 -39
-20 -54 -50 -25 -50 8 0 15 -7 15 -15 0 -22 66 -150 77 -150 8 0 75 36 148 81
8 5 29 16 47 24 17 8 37 20 45 27 8 7 29 22 48 32 125 69 216 121 220 125 3 3
14 11 25 17 11 6 46 26 78 43 l57 33 0 -68 c0 -37 3 -64 6 -61 4 4 14 39 24
79 20 85 41 96 73 38 10 -19 24 -38 29 -41 5 -3 9 -9 8 -13 -1 -6 41 -84 112
-205 15 -25 37 -64 49 -86 12 -22 27 -43 33 -47 6 -4 7 -8 3 -8 -5 0 5 -19 22
-42 17 -23 31 -52 31 -65 0 -13 6 -23 13 -24 9 0 9 -2 -1 -6 -7 -3 -36 -20
-63 -39 -28 -19 -56 -34 -62 -34 -6 0 -19 -7 -29 -17 -19 -17 -24 -20 -106
-65 -26 -14 -91 -51 -143 -81 l-94 -54 -3 45 c-4 50 21 156 49 213 35 71 49
153 48 280 l-1 124 -34 -135 c-18 -74 -41 -182 -49 -240 -9 -58 -20 -121 -25
-140 -5 -19 -14 -67 -20 -105 l-11 -70 -94 -53 c-70 -39 -93 -56 -88 -68 3 -8
11 -13 18 -10 8 3 10 -4 8 -18 -3 -15 5 -33 22 -52 15 -16 22 -20 14 -9 -11
17 -11 18 0 8 18 -16 21 -81 5 -119 -12 -29 -41 -155 -75 -324 -7 -36 -14
-122 -16 -192 -4 -111 -1 -142 21 -234 15 -58 26 -134 26 -170 0 -57 2 -64 20
-64 19 0 20 7 20 93 0 50 -7 120 -15 153 -20 85 -21 298 -2 409 17 99 46 194
102 330 39 95 64 126 137 163 54 28 103 56 195 110 39 23 76 42 82 42 6 0 11
4 11 9 0 5 8 11 18 15 17 5 52 26 62 36 3 3 14 10 25 16 11 6 42 23 68 37 72
40 97 34 130 -33 9 -19 41 -75 71 -125 30 -49 66 -110 79 -135 53 -99 109
-194 120 -201 5 -3 7 -19 5 -34 -2 -23 -15 -34 -67 -62 -35 -18 -75 -42 -90
-52 -14 -10 -36 -22 -48 -25 -13 -4 -23 -11 -23 -15 0 -4 -19 -16 -42 -27 -24
-10 -49 -24 -56 -31 -7 -7 -18 -13 -23 -13 -5 0 -33 -16 -62 -35 -28 -19 -57
-35 -64 -35 -6 0 -13 -3 -15 -7 -3 -7 -20 -18 -123 -74 -22 -12 -42 -24 -45
-28 -3 -3 -17 -12 -32 -20 -29 -15 -35 -30 -19 -46 5 -6 26 -41 46 -80 20 -38
40 -73 44 -77 4 -4 22 1 41 11 19 11 50 26 68 35 17 8 32 19 32 24 0 6 11 12
23 16 13 3 50 21 82 41 33 19 63 35 68 35 4 0 5 6 1 13 -4 6 -4 9 1 5 8 -7 81
26 87 39 1 5 35 24 73 43 88 44 127 69 120 80 -3 4 4 6 14 3 11 -3 28 4 40 16
26 26 98 48 112 34 6 -6 21 -29 32 -51 59 -107 70 -127 77 -132 4 -3 15 -21
24 -40 9 -19 27 -55 41 -79 16 -28 23 -52 19 -67 -4 -15 4 -39 22 -70 16 -26
23 -44 16 -40 -9 6 -12 -10 -11 -62 1 -38 -3 -77 -9 -88 -5 -10 -13 -40 -17
-66 -4 -27 -11 -48 -16 -48 -5 0 -9 -10 -9 -23 0 -13 -11 -33 -25 -45 -14 -12
-25 -30 -25 -40 0 -29 -24 -72 -37 -67 -7 2 -13 -2 -13 -11 0 -8 -8 -18 -17
-21 -10 -4 -20 -10 -23 -14 -5 -7 -81 -48 -132 -71 -16 -7 -28 -18 -28 -26 0
-7 -4 -11 -10 -7 -5 3 -27 -6 -49 -20 -23 -14 -45 -25 -51 -25 -5 0 -10 -4
-10 -9 0 -5 -9 -13 -20 -16 -11 -4 -48 -24 -83 -46 -34 -21 -82 -48 -107 -60
-25 -12 -47 -25 -50 -28 -3 -4 -22 -15 -42 -24 -21 -10 -38 -22 -38 -27 0 -4
-13 -11 -30 -15 -17 -4 -30 -13 -30 -21 0 -9 -3 -13 -7 -11 -5 2 -30 -8 -58
-24 -27 -15 -70 -38 -95 -50 -25 -13 -47 -26 -50 -30 -3 -3 -20 -15 -39 -25
-19 -10 -55 -31 -80 -46 -25 -14 -63 -35 -83 -45 -21 -10 -38 -23 -38 -30 0
-7 -8 -13 -17 -13 -10 0 -34 -10 -53 -22 -40 -26 -87 -52 -156 -88 -27 -14
-50 -28 -52 -32 -8 -17 -40 -6 -87 30 -28 20 -87 62 -133 91 -45 30 -82 58
-82 61 0 3 20 16 44 28 33 15 66 48 126 124 77 96 231 268 310 346 l35 35 -45
-24 c-24 -13 -108 -85 -185 -159 -77 -75 -151 -145 -165 -156 -31 -24 -123
-131 -139 -162 l-12 -22 -32 24 c-18 13 -55 35 -84 49 -28 13 -69 35 -90 48
-35 22 -49 24 -171 24 -146 0 -152 2 -152 63 0 20 -6 34 -15 37 -50 16 -48 14
-33 38 8 12 33 31 54 42 66 34 104 61 96 69 -4 4 0 6 8 5 18 -4 181 81 187 98
3 6 11 9 19 6 8 -3 14 0 14 6 0 6 4 11 8 11 18 0 231 127 224 134 -4 4 -2 6 3
5 18 -6 71 29 82 54 13 28 0 49 -24 40 -12 -5 -14 -1 -9 15 5 16 0 28 -19 46
-19 18 -26 33 -23 53 4 40 -20 35 -128 -30 -49 -30 -110 -65 -134 -79 -54 -30
-147 -84 -198 -115 -21 -12 -53 -30 -72 -40 -57 -30 -134 -76 -148 -90 -21
-20 -61 -27 -77 -13 -8 7 -28 37 -45 68 l-30 56 22 153 21 153 38 0 c42 0 36
-11 70 123 6 23 28 95 50 159 21 65 38 123 37 130 -2 6 15 21 37 32 22 12 54
30 70 41 17 11 55 33 86 50 35 18 55 34 52 42 -3 7 -10 13 -17 13 -6 0 -17 14
-23 31 -7 17 -17 28 -22 24 -7 -4 -11 4 -11 20 0 15 -4 34 -10 44 -7 13 -4 34
9 72 10 30 24 104 30 164 10 86 20 127 46 185 18 41 41 100 50 130 10 30 25
68 33 85 33 66 52 194 52 358 0 89 -4 156 -9 153 -19 -12 -50 -185 -55 -306
-5 -145 -18 -207 -83 -385 -25 -71 -59 -178 -74 -237 -44 -174 -68 -226 -114
-257 -22 -14 -41 -29 -43 -33 -2 -5 -8 -8 -13 -8 -5 0 -69 -34 -142 -77 -73
-42 -184 -105 -247 -141 -63 -36 -117 -69 -120 -73 -10 -14 -55 -19 -85 -10
-16 5 -24 10 -16 10 12 1 11 4 -2 19 -8 9 -29 42 -44 72 -39 74 -57 104 -64
110 -3 3 -31 51 -63 108 -77 140 -79 145 -92 158 -6 7 -17 27 -24 45 -13 30
-12 33 11 50 13 11 30 24 37 30 7 5 27 17 45 25 32 16 90 48 167 94 66 40 121
71 216 124 49 27 91 53 94 56 5 8 55 35 118 65 32 15 39 39 14 41 -7 1 -17 2
-22 3 -6 0 -9 7 -8 14 2 6 -5 11 -14 9 -11 -2 -18 3 -18 12 0 10 6 13 15 10
19 -8 19 -1 -2 34 -11 17 -25 26 -35 24 -11 -2 -18 3 -18 12 0 9 5 16 10 16 6
0 10 9 10 21 0 17 -4 19 -22 13 -13 -3 -25 -11 -26 -15 -2 -5 -26 -19 -53 -30
-27 -12 -49 -25 -49 -29 0 -4 -17 -14 -37 -23 -21 -9 -58 -30 -83 -47 -25 -16
-64 -39 -88 -50 -24 -11 -50 -27 -58 -35 -9 -8 -21 -15 -29 -15 -16 0 -4 37
69 203 31 70 56 145 60 176 14 113 47 216 116 372 67 150 71 164 66 212 -14
124 -18 304 -7 342 6 22 32 77 59 122 44 75 50 92 66 200 16 103 33 173 78
323 24 79 100 245 151 332 30 51 61 109 69 128 18 42 64 72 78 50 7 -11 14
-12 32 -3 45 22 68 27 68 15z m-210 -16 c0 -2 -14 -21 -31 -42 -17 -22 -44
-64 -59 -94 -15 -30 -40 -73 -56 -95 -22 -33 -29 -56 -35 -128 -5 -67 -13 -97
-31 -125 -13 -20 -31 -55 -40 -77 -14 -36 -52 -191 -65 -270 -3 -16 -21 -51
-39 -76 -59 -81 -64 -102 -64 -278 0 -137 -3 -170 -24 -242 -13 -46 -26 -102
-29 -124 -2 -22 -15 -63 -27 -90 -13 -28 -26 -75 -31 -105 -4 -30 -19 -104
-33 -165 -14 -60 -25 -125 -26 -143 0 -36 -24 -88 -77 -168 -39 -58 -51 -98
-61 -193 -7 -63 -8 -65 -52 -93 -25 -15 -63 -37 -85 -48 -22 -12 -60 -32 -85
-45 -52 -28 -58 -25 -102 52 -16 29 -34 56 -39 59 -5 3 -7 10 -4 15 4 5 2 9
-3 9 -6 0 -15 12 -21 28 -6 15 -33 64 -61 110 -27 46 -52 92 -55 103 -4 10
-11 19 -16 19 -5 0 -9 4 -9 10 0 5 -14 31 -30 57 -17 26 -30 61 -30 77 0 33
16 46 113 93 32 15 46 27 41 35 -5 7 -2 9 7 6 8 -3 33 6 55 21 21 14 70 42
107 61 37 19 67 41 67 49 0 8 6 11 16 7 17 -7 84 29 84 45 0 5 6 9 14 9 7 0
34 12 59 26 33 18 44 30 40 41 -5 12 -1 14 16 8 14 -4 33 1 56 15 38 23 41 30
24 47 -9 9 -15 8 -27 -3 -8 -8 -17 -12 -20 -9 -3 3 0 11 6 17 18 18 14 46 -8
60 -13 9 -20 24 -20 45 0 38 -11 41 -52 12 -16 -12 -58 -37 -94 -55 -88 -47
-134 -80 -126 -89 4 -5 1 -5 -5 -1 -7 4 -44 -12 -85 -36 -77 -45 -96 -56 -175
-101 -48 -27 -55 -32 -123 -73 -64 -39 -77 -39 -110 -2 -17 18 -42 56 -56 83
-31 62 -109 195 -125 214 -7 7 -13 34 -15 60 -1 25 -7 75 -12 109 -6 36 -7 89
-2 120 4 32 5 63 3 70 -7 16 16 72 29 72 5 0 8 6 5 13 -2 6 3 17 11 23 8 6 15
23 15 38 0 20 7 31 24 39 15 6 27 22 30 40 4 20 14 32 35 39 20 7 34 22 44 48
11 28 26 42 57 56 23 10 44 21 47 25 3 3 21 14 40 24 19 10 37 21 40 24 3 3
21 14 40 24 19 9 51 27 70 38 19 12 60 35 90 51 30 17 61 35 68 40 14 12 64
40 107 62 17 8 41 23 55 33 14 11 40 25 58 32 17 8 32 16 32 20 0 4 12 12 28
19 15 6 54 27 87 46 33 19 78 44 100 57 22 12 42 25 45 29 3 4 21 15 40 24 19
9 58 30 85 46 28 16 68 39 89 51 22 12 46 27 53 34 7 8 29 19 48 25 19 6 35
15 35 20 0 4 12 13 28 19 15 6 50 24 77 40 53 32 55 33 55 27z m1843 -786 c4
-8 21 -35 37 -60 16 -25 38 -63 50 -85 11 -22 26 -49 33 -60 31 -51 117 -205
117 -211 0 -3 10 -20 23 -37 12 -18 27 -41 33 -52 26 -49 72 -128 129 -225
114 -194 110 -183 90 -214 -18 -26 -17 -27 3 -33 24 -6 25 -7 16 -51 -5 -26
-9 -30 -24 -22 -13 7 -22 4 -35 -10 -10 -11 -27 -22 -38 -26 -12 -4 -27 -12
-34 -18 -34 -30 -43 -36 -56 -36 -8 0 -20 -7 -27 -14 -8 -11 -18 -12 -36 -5
-14 5 -36 9 -49 9 -16 0 -27 9 -37 30 -7 17 -16 30 -20 30 -5 0 -8 6 -8 14 0
7 -8 24 -19 37 -10 13 -27 40 -38 59 -11 19 -32 58 -48 85 -16 28 -39 70 -53
95 -13 25 -30 52 -36 60 -7 8 -28 44 -46 80 -19 36 -44 79 -57 97 -13 17 -23
35 -23 38 0 4 -13 25 -28 48 -16 23 -37 60 -47 82 -10 22 -31 60 -47 84 -23
34 -26 46 -16 52 10 7 8 9 -5 9 -12 0 7 21 55 60 78 64 198 212 198 245 0 16
3 15 18 -10 10 -16 21 -37 25 -45z m-1820 -2533 c-22 -38 -101 -143 -124 -166
-21 -22 -28 -42 -38 -121 -7 -52 -17 -99 -21 -105 -4 -5 -12 -46 -19 -90 -13
-87 -37 -155 -56 -155 -6 0 -21 19 -33 43 -12 23 -33 60 -47 82 -13 22 -33 58
-45 80 -12 22 -35 63 -50 90 -35 59 -40 105 -11 105 10 0 24 7 31 15 6 8 22
17 33 21 12 4 35 16 52 28 16 11 46 29 65 39 19 9 52 27 72 40 85 51 184 106
191 107 4 0 4 -6 0 -13z m-1369 -1957 l168 -95 -5 -51 c-6 -54 -53 -248 -121
-494 -24 -85 -56 -202 -71 -260 -16 -58 -30 -112 -33 -120 -3 -8 145 137 329
323 184 185 340 337 347 337 22 0 362 -201 362 -214 0 -15 -792 -806 -807
-806 -7 0 -18 6 -25 14 -8 7 -60 28 -116 47 -82 27 -102 37 -102 52 0 17 -2
18 -17 6 -20 -17 -266 -20 -283 -3 -8 8 -4 19 12 40 l23 29 -33 -27 c-43 -36
-68 -36 -77 -1 -4 19 -9 23 -14 14 -6 -9 -19 -11 -39 -6 -29 6 -30 8 -25 43
20 130 176 705 193 710 7 3 7 8 1 15 -6 8 7 72 38 187 26 96 58 217 71 268 18
75 26 92 39 90 10 -2 93 -46 185 -98z m3089 0 c131 -21 242 -96 346 -234 78
-102 125 -190 143 -266 11 -48 15 -53 69 -81 54 -29 160 -125 196 -179 9 -14
29 -40 45 -58 32 -37 37 -78 11 -86 -10 -3 -3 -4 14 -2 31 2 34 0 55 -53 19
-46 23 -75 23 -166 0 -99 -3 -116 -28 -169 -41 -88 -92 -150 -187 -225 -170
-135 -267 -190 -333 -191 -31 0 -40 4 -44 20 -3 11 -10 20 -15 20 -6 0 -7 7
-4 16 4 11 1 14 -12 10 -12 -4 -26 1 -37 14 -10 11 -23 20 -29 20 -13 0 -66
64 -66 79 0 6 -5 11 -10 11 -6 0 -14 8 -17 18 -4 9 -15 29 -25 43 -14 18 -18
39 -16 70 3 40 6 44 33 49 17 3 29 10 27 15 -3 10 81 32 129 34 29 1 108 50
155 97 20 21 37 51 45 84 11 44 17 52 41 57 18 4 28 12 28 24 0 10 9 19 19 21
15 2 16 5 6 15 -10 9 -21 6 -48 -13 -44 -30 -46 -30 -91 1 -20 14 -53 27 -74
31 -39 6 -79 -15 -160 -83 l-32 -28 60 -77 c63 -81 76 -114 39 -105 -12 3 -22
0 -25 -8 -3 -7 -31 -15 -67 -19 -34 -4 -73 -15 -87 -24 -14 -9 -41 -15 -62
-13 -20 1 -45 -3 -56 -10 -16 -10 -29 -10 -68 1 -27 8 -51 14 -54 13 -17 -4
-41 21 -37 38 3 10 1 17 -4 13 -11 -6 -59 44 -59 62 0 7 6 15 13 17 6 3 -1 6
-16 6 -20 1 -30 7 -34 21 -3 11 -9 20 -13 20 -13 0 -230 287 -230 304 0 9 -6
16 -13 16 -16 0 -152 177 -151 196 1 7 -2 12 -6 9 -5 -3 -26 18 -49 46 -30 38
-38 55 -32 71 12 33 131 147 147 141 9 -3 14 2 14 15 0 25 82 101 219 205 121
91 182 124 265 142 77 17 79 17 149 5z m-1565 -542 c5 -8 6 -22 1 -33 -10 -27
-11 -37 0 -31 13 8 21 -57 21 -172 0 -64 5 -110 13 -122 9 -16 9 -22 0 -28 -8
-5 -7 -17 3 -47 9 -26 15 -88 17 -172 1 -73 5 -133 10 -133 4 0 7 -12 7 -26 0
-22 -4 -26 -23 -22 -20 4 -27 -3 -46 -41 l-22 -45 34 39 c56 65 61 55 81 -176
9 -112 19 -231 22 -264 l6 -60 261 22 c143 13 263 21 265 18 3 -3 13 -92 22
-197 14 -155 15 -195 5 -203 -18 -15 -923 -91 -935 -79 -5 5 -12 57 -16 114
-3 58 -17 215 -29 350 -13 135 -26 279 -29 320 -3 41 -17 211 -32 377 -27 299
-27 303 -8 324 17 20 17 22 2 16 -22 -8 -25 3 -37 133 -6 59 -6 99 0 105 5 5
92 17 192 26 100 9 187 17 193 18 6 0 16 -5 22 -11z m-2069 -1010 c5 -13 7
-26 4 -30 -5 -9 129 -14 283 -9 116 3 184 -9 184 -34 0 -17 -228 -231 -242
-227 -22 6 -287 164 -298 177 -18 21 -2 55 33 70 23 10 26 14 13 15 -22 0 -66
-37 -66 -56 0 -8 -6 -11 -14 -8 -12 5 -11 15 6 65 19 57 21 59 54 59 27 0 37
-5 43 -22z"/>
<path d="M4951 9909 c0 -19 5 -43 10 -54 6 -13 7 -4 3 30 -8 60 -14 72 -13 24z"/>
<path d="M3972 8603 c-18 -38 -32 -84 -32 -103 0 -34 1 -33 29 26 25 53 50
144 39 144 -2 0 -18 -30 -36 -67z"/>
<path d="M3944 8257 c3 -27 15 -67 26 -90 l20 -42 -4 35 c-2 19 -13 60 -25 90
l-22 55 5 -48z"/>
<path d="M6740 7397 c0 -2 14 -41 30 -87 l31 -85 -7 75 c-6 77 -16 100 -40
100 -8 0 -14 -1 -14 -3z"/>
<path d="M6792 6974 c-1 -59 -10 -132 -21 -175 -10 -41 -22 -94 -26 -119 l-6
-45 20 30 c32 46 42 118 38 271 -2 120 -3 125 -5 38z"/>
<path d="M6694 6533 c-30 -72 -47 -159 -38 -200 l8 -38 7 45 c13 83 29 165 38
198 13 43 5 41 -15 -5z"/>
<path d="M8040 6280 c-8 -5 -11 -12 -8 -15 4 -4 17 0 30 9 24 17 5 23 -22 6z"/>
<path d="M7960 6223 c-161 -105 -332 -211 -412 -257 -26 -14 -50 -31 -53 -36
-6 -10 9 -4 125 52 41 20 91 43 110 52 107 47 235 139 261 187 12 23 2 23 -31
2z"/>
<path d="M7383 5869 c-58 -34 -68 -44 -26 -28 31 12 93 48 93 55 0 9 -17 2
-67 -27z"/>
<path d="M4631 4096 c-8 -10 -9 -16 -1 -21 5 -3 10 -3 11 2 1 4 5 -3 9 -17 7
-22 8 -21 9 13 1 39 -9 47 -28 23z"/>
<path d="M4610 4037 c0 -1 -4 -16 -9 -34 -7 -26 -7 -31 5 -26 13 5 21 63 9 63
-3 0 -5 -1 -5 -3z"/>
<path d="M4460 3625 c-7 -9 -8 -15 -2 -15 5 0 12 7 16 15 3 8 4 15 2 15 -2 0
-9 -7 -16 -15z"/>
<path d="M4365 3559 c-4 -6 -5 -12 -2 -15 2 -3 7 2 10 11 7 17 1 20 -8 4z"/>
<path d="M4682 3550 c0 -14 2 -19 5 -12 2 6 2 18 0 25 -3 6 -5 1 -5 -13z"/>
<path d="M7252 4195 c0 -16 2 -22 5 -12 2 9 2 23 0 30 -3 6 -5 -1 -5 -18z"/>
<path d="M7749 4180 c-24 -16 -61 -44 -82 -62 l-37 -33 75 -98 c87 -111 80
-110 169 -24 69 68 77 101 41 163 -26 45 -75 84 -106 84 -8 0 -35 -13 -60 -30z"/>
<path d="M7300 4066 c0 -2 7 -9 15 -16 12 -10 15 -10 15 4 0 9 -7 16 -15 16
-8 0 -15 -2 -15 -4z"/>
<path d="M7316 4008 c-8 -32 -7 -66 2 -71 4 -3 8 17 9 44 2 53 -1 61 -11 27z"/>
<path d="M7381 3873 c13 -15 49 -18 49 -4 0 5 -13 11 -30 13 -24 4 -27 2 -19
-9z"/>
<path d="M7470 3850 c-12 -8 -10 -10 8 -10 13 0 20 4 17 10 -7 12 -6 12 -25 0z"/>
<path d="M7570 3706 c0 -7 15 -16 33 -21 28 -9 32 -15 35 -46 2 -27 9 -38 23
-42 15 -4 19 -14 19 -54 0 -28 -7 -58 -16 -71 -15 -22 -15 -22 9 -11 16 7 23
17 20 29 -3 10 2 31 9 46 20 40 12 64 -23 71 -23 4 -28 10 -24 24 4 10 2 25
-2 34 -12 21 -83 56 -83 41z"/>
<path d="M8570 3710 c8 -5 29 -10 45 -10 23 0 27 3 15 10 -8 5 -28 10 -45 10
-23 0 -27 -3 -15 -10z"/>
<path d="M6250 3959 c-22 -18 -22 -19 -3 -10 12 6 25 16 28 21 9 15 3 12 -25
-11z"/>
<path d="M6313 3022 c15 -16 16 -24 7 -41 -15 -29 -6 -26 13 3 16 23 15 25
-11 42 l-27 17 18 -21z"/>
<path d="M6287 2871 c-12 -23 -12 -28 -1 -24 7 3 16 14 20 25 10 32 -3 32 -19
-1z"/>
<path d="M6202 2777 c-12 -13 -24 -38 -27 -57 l-5 -35 11 35 c6 19 20 45 32
58 11 12 18 22 15 22 -2 0 -14 -10 -26 -23z"/>
<path d="M6161 2664 c0 -11 3 -14 6 -6 3 7 2 16 -1 19 -3 4 -6 -2 -5 -13z"/>
</g>
</svg>
